<!DOCTYPE svg PUBLIC "-//W3C//DTD SVG 20010904//EN" "http://www.w3.org/TR/2001/REC-SVG-20010904/DTD/svg10.dtd">
<svg version="1.0" xmlns="http://www.w3.org/2000/svg" width="100%" height="100%" viewBox="0 0 16 16" preserveAspectRatio="xMidYMid meet">
 <g id="layer101" fill="#000000" stroke="none">
  <path d="M6.4 14.4 c-1.5771 -0.2286 -2.88 -0.4343 -2.9257 -0.4343 -0.0229 -0.0229 -0.0229 -2.3543 0 -5.2114 l0.0686 -5.2114 0.6171 -0.0686 c0.4114 -0.0457 0.6857 -0.2743 0.8686 -0.7543 0.3657 -0.8457 1.2571 -1.5771 1.9429 -1.5771 0.5943 0 1.7143 0.8229 1.7143 1.2571 0 0.2057 0.3429 0.3429 0.9829 0.3886 l0.96 0.0686 0 5.9429 0 5.9429 -0.6857 0.0229 c-0.3657 0.0229 -1.9657 -0.1371 -3.5429 -0.3657z m1.2114 -7.3829 c0.7771 -1.9657 0.9371 -2.9486 0.6171 -3.9086 -0.6857 -2.1029 -2.7429 -1.1429 -2.7429 1.28 0 1.12 1.0743 4.3657 1.3714 4.1829 0.0914 -0.0686 0.4343 -0.7543 0.7543 -1.5543z"/>
  <path d="M6.2171 5.2114 c-0.16 -0.16 -0.2743 -0.5943 -0.2743 -0.9829 0 -0.8229 0.3429 -1.2571 1.0514 -1.2571 0.5486 0 0.7771 0.3886 0.7771 1.3486 0 0.6857 -0.3657 1.1657 -0.9143 1.1657 -0.2057 0 -0.48 -0.1143 -0.64 -0.2743z"/>
  <path d="M11.68 14.4 c-0.2057 -0.1143 -0.2286 -0.2286 -0.0457 -0.32 0.3429 -0.2057 0.3657 -10.6514 0.0229 -10.6514 -0.1143 0 -0.2286 -0.1143 -0.2286 -0.2514 0 -0.1371 0.2286 -0.2057 0.5257 -0.16 l0.5029 0.0686 0.0686 5.6229 c0.0457 4.5943 0 5.6686 -0.2514 5.76 -0.1829 0.0686 -0.4571 0.0457 -0.5943 -0.0686z"/>
</g>

</svg>